<?xml version="1.0" standalone="no"?>
<!DOCTYPE svg PUBLIC "-//W3C//DTD SVG 1.1//EN" "http://www.w3.org/Graphics/SVG/1.1/DTD/svg11.dtd">
<svg xmlns="http://www.w3.org/2000/svg">
<metadata>Generated by Fontastic.me</metadata>
<defs>
<font id="fod" horiz-adv-x="512">
<font-face font-family="fod" units-per-em="512" ascent="480" descent="-32"/>
<missing-glyph horiz-adv-x="512" />

<glyph glyph-name="fod-icon-arroba" unicode="&#97;" d="M368 34c-43-19-80-25-131-25-118 0-222 84-222 223 0 145 106 271 267 271 125 0 215-86 215-205 0-104-58-170-135-170-33 0-57 18-62 55l-1 0c-23-36-54-55-92-55-46 0-80 35-80 93 0 88 65 166 167 166 32 0 67-8 85-18l-21-132c-7-42-2-61 17-61 30-2 69 37 69 120 0 93-60 165-170 165-109-1-204-86-204-222 0-120 75-186 182-186 36 0 75 8 104 22z m-63 294c-6 1-14 2-23 2-46 0-83-46-83-100 0-28 12-45 36-45 26 0 53 33 60 74z"/>
<glyph glyph-name="fod-icon-binocular" unicode="&#98;" d="M511 136l-63 208c-2 6-8 8-13 8l-1 0-30 99c-2 11-34 12-70 5-37-8-65-23-63-33l12-103-1 0c-6-1-9-7-8-12l7-59c-8 4-16 5-25 5-9 0-17-1-25-5l7 59c1 6-3 11-8 12l-1 0 12 103c3 10-25 25-63 33-36 7-68 6-70-5l-30-99-1 0c-6 1-11-2-13-7l-63-208c-7-33 35-69 94-82 58-11 111 5 117 37 0 0 0 1 0 1l6 39c11-7 24-13 39-13 14 0 28 6 39 13l5-39c0 0 0-1 0-1 7-32 60-48 118-37 57 12 99 48 92 81z m-410-52c-50 11-73 37-71 46 4 18 58 18 83 13 24-5 74-27 70-45-4-19-58-19-82-14z m155 86c-9 0-18 7-18 18 0 9 8 18 18 18 9 0 18-8 18-18 0-11-9-18-18-18z m155-86c-24-5-78-5-82 14-5 19 46 40 70 45 24 5 78 5 82-13 3-9-19-35-70-46z"/>
<glyph glyph-name="fod-icon-box-chain" unicode="&#99;" d="M454 503l-396 0c-27 0-49-22-49-49l0-396c0-27 22-49 49-49l396 0c27 0 49 22 49 49l0 396c0 27-22 49-49 49z m-162-350l-63-45c-21-15-46-21-70-17-25 5-46 17-61 38l-1 1c-14 20-20 45-16 70 4 24 17 46 38 60l63 45c4 3 9 2 12-1l28-39-35-26-8 11-35-26c-22-16-27-47-11-69l1-1c16-22 47-27 69-11l35 26-8 10 35 25 29-39c2-4 1-9-2-12z m12 150c9 7 22 4 29-4 7-10 4-23-4-29l-117-85c-10-7-23-4-29 4-7 10-5 23 4 29l10 8z m129-14c-4-24-17-46-37-60l-64-47c-4-3-9-2-12 1l-28 40 36 26 7-11 35 26c23 16 28 47 11 69l0 1c-17 22-47 27-70 11l-35-26 8-11-37-26-28 40c-2 4-1 9 2 12l64 47c20 14 45 20 70 16 25-4 46-17 61-38l0-1c15-19 21-44 17-69z"/>
<glyph glyph-name="fod-icon-cammera" unicode="&#100;" d="M449 393l-32 45c-10 13-24 19-40 20l-47 0c-17-1-30-7-40-20l-31-44-181 0c-43 0-78-35-78-77l0-186c0-43 35-78 78-78l356 0c43 0 78 35 78 78l0 186c0 38-27 70-63 76z m-128 23c0 0 2 1 4 2 3 1 4 2 5 2l47 0c0 0 3 0 5-2 3-1 5-2 5-2l14-21-95 0z m-80-300c-61 0-110 50-110 110 0 61 49 110 110 110 60 0 110-49 110-110 0-60-50-110-110-110z m-194 15l0 186c0 18 14 31 31 31l52 0c-34-30-54-73-54-122 0-51 23-96 60-126l-58 0c-17 0-31 14-31 31z m418 0c0-18-14-31-31-31l-88 0c36 30 59 76 59 126 0 49-20 91-53 122l82 0c17 0 31-14 31-31z"/>
<glyph glyph-name="fod-icon-cancel" unicode="&#101;" d="M437 437c-50 50-115 75-181 75-66 0-131-25-181-75-100-100-100-262 0-362 50-50 115-75 181-75 66 0 131 25 181 75 100 100 100 262 0 362z m-334-28c41 41 95 63 153 63 44 0 85-13 121-37l-300-300c-24 36-37 77-37 121 0 58 22 112 63 153z m306-306c-41-41-95-63-153-63-44 0-85 13-121 37l300 300c57-84 48-200-26-274z"/>
<glyph glyph-name="fod-icon-chain" unicode="&#102;" d="M215 59l91 66c6 4 7 12 3 17l-41 57-50-37 11-16-52-37c-32-23-76-16-99 16l-1 3c-23 32-16 77 16 100l51 37 11-17 51 37-41 57c-5 6-12 7-17 3l-92-66c-29-21-48-52-53-88-6-36 2-72 23-101l1-1c22-29 52-49 88-54 35-6 71 3 100 24z m82 394l-93-67c-6-5-7-12-3-17l41-58 52 38-11 16 52 37c32 23 76 16 99-16l1-2c23-32 16-77-16-100l-51-37-11 17-52-38 41-57c4-6 12-7 17-3l93 68c29 21 48 52 53 88 6 36-2 71-23 100l-1 2c-21 28-52 47-88 53-35 6-71-3-100-24z m-128-223l-15-11c-14-9-17-28-7-42 9-13 28-16 42-6l169 122c14 9 17 28 7 42-9 13-28 16-42 6z"/>
<glyph glyph-name="fod-icon-check" unicode="&#103;" d="M461 481c-36-17-213-218-309-313l-73 73c-9 11-27 43-45 22l-26-39c-18-21 1-56 14-66l118-137c14-11 39-2 56 19l15 18 275 393c18 20 59 67-25 30z"/>
<glyph glyph-name="fod-icon-cloud" unicode="&#104;" d="M461 222l-94 25c0 0-1 0-1 0-2 0-2 0-3-2l-3-9 2 5-17 6 0 1c1 5 1 9 1 13 0 41-34 74-75 74-41 0-74-33-74-74 0-41 33-74 74-74 30 0 58 18 69 46l0 2 18-5-1-4c-1-2 1-3 2-4l95-27c18-3 31-19 31-38 0-20-17-39-37-39l-354 0c-18 0-35 9-49 23-14 14-22 34-21 54 0 20 8 39 24 53 14 14 32 21 51 21 1 0 3 0 3 0 17-1 32-7 45-16 2-3 6-5 9-5 4 0 7 2 10 5 3 3 5 8 3 13-2 5-3 10-3 16 0 3 0 6 0 10 2 24 12 47 29 65 17 18 40 28 64 30 4 0 7 1 11 1 24 0 44-8 63-24 21-18 35-42 35-70 0-6 8-14 16-14 8 0 15 8 15 14-2 35-18 69-47 92-23 20-52 30-83 30-4 0-9 0-14 0-63-7-113-59-118-122 0-1 0-2 0-3l0-3-1 2c-12 4-23 7-36 7-51 0-88-37-100-85l0-34c11-41 38-70 77-82l390 0c25 12 45 35 45 64 0 29-21 55-51 62z m-190-15c-30 0-53 23-53 53 0 30 23 54 53 54 30 0 54-24 54-54 0-29-24-53-54-53z"/>
<glyph glyph-name="fod-icon-download" unicode="&#105;" d="M0 197c26 0 51 0 79 0 1-14 2-26 4-40 115 0 230 0 347 0 1 12 2 24 3 40 28 0 53 0 80 0 0-39 0-78 0-118-171 0-341 0-512 0-1 40-1 79-1 118z m195 236c0-26 0-51 0-78-28 0-53 0-85 0 52-55 100-106 149-158 48 52 96 103 148 159-33 0-59 0-84 0 0 28 0 53 0 77-43 0-86 0-128 0z"/>
<glyph glyph-name="fod-icon-email" unicode="&#106;" d="M0 442l0-372 512 0 0 372z m256-238l65 46 136-142-402 0 136 142z m0 67l-163 117 326 0z m-84-7l-134-139 0 235z m302-139l-134 139 134 96z"/>
<glyph glyph-name="fod-icon-exclamation" unicode="&#107;" d="M437 437c-50 50-115 75-181 75-66 0-131-25-181-75-100-100-100-262 0-362 50-50 115-75 181-75 66 0 131 25 181 75 100 100 100 262 0 362z m-28-334c-41-41-95-63-153-63-58 0-112 22-153 63-84 85-84 221 0 306 41 41 95 63 153 63 58 0 112-22 153-63 41-41 63-95 63-153 0-58-22-112-63-153z m-115 252c0-20-18-38-38-38-20 0-38 18-38 38 0 20 18 38 38 38 20-1 38-18 38-38z m-72-66l68 0 0-169-68 0z"/>
<glyph glyph-name="fod-icon-facebook" unicode="&#108;" d="M429 503l-346 0c-41 0-74-33-74-74l0-347c0-40 33-73 74-73l347 0c41 0 74 33 74 74l0 346c-1 41-34 74-75 74z m-28-278l-84 0 0-154-61 0 0 154-61 0 0 31 61 0 0 77c0 52 31 80 78 80 22 0 46-2 46-3l0-62c-26 0-62-4-62-21l0-71 92 0z"/>
<glyph glyph-name="fod-icon-filter" unicode="&#109;" d="M509 497c-3 10-11 15-21 15l-464 0c-10 0-17-5-21-15-5-10-3-18 5-25l179-179 0-177c0-6 2-12 7-16l93-93c4-4 9-7 16-7 2 0 6 1 9 2 10 4 15 11 15 21l0 270 179 179c6 7 8 15 3 25z"/>
<glyph glyph-name="fod-icon-glass" unicode="&#110;" d="M422 9l-140 153 75 68 140-154z m-406 323c0-71 45-137 115-162 90-31 187 16 218 106 7 18 9 37 9 56 0 71-44 137-115 162-89 31-187-16-217-106-7-19-10-37-10-56m46 0c0 14 3 27 7 41 11 31 33 57 63 72 30 14 64 16 96 6 50-18 83-65 83-118 0-14-2-28-6-41-11-32-34-57-64-72-29-14-64-16-95-6-50 18-84 65-84 118z"/>
<glyph glyph-name="fod-icon-hamburger" unicode="&#111;" d="M494 360l-476 0c-5 0-9 4-9 9l0 49c0 5 4 10 9 10l476 0c5 0 9-5 9-10l0-49c0-5-4-9-9-9z m9-129l0 49c0 5-4 9-9 9l-476 0c-5 1-9-3-9-8l0-49c0-6 4-10 9-10l476 0c5 0 9 4 9 9z m0-138l0 49c0 5-4 9-9 9l-476 0c-5 0-9-4-9-9l0-49c0-5 4-9 9-9l476 0c5 0 9 4 9 9z"/>
<glyph glyph-name="fod-icon-home" unicode="&#112;" d="M26 214l40 0 0-161c0-9 7-17 17-17l118 0c9 0 17 8 17 17l0 118 72 0 0-118c0-9 8-17 17-17l113 0c9 0 17 8 17 17l0 161 49 0c7 0 14 4 17 10 2 6 0 14-4 19l-226 229c-7 7-18 7-24 0l-235-229c-5-4-7-12-5-19 4-6 10-10 17-10z m234 221l185-187-25 0c-10 0-17-7-17-17l0-161-78 0 0 118c0 9-8 17-17 17l-107 0c-9 0-17-8-17-17l0-118-83 0 0 161c0 10-8 17-17 17l-16 0z"/>
<glyph glyph-name="fod-icon-link" unicode="&#113;" d="M389 199c-33 0-63-18-80-45l-102 59c7 13 11 28 11 43 0 9-2 19-5 27l106 61c17-19 42-31 70-31 53 0 96 43 96 96 0 53-43 94-96 94-53 0-95-42-95-95 0-9 1-19 4-27l-106-61c-17 19-42 31-70 31-53 0-96-43-96-96 0-53 43-95 96-95 21 0 42 7 57 19l115-66c0-4 0-7 0-11 0-53 42-95 95-95 53 0 96 42 96 95 0 54-43 97-96 97z"/>
<glyph glyph-name="fod-icon-pencil" unicode="&#114;" d="M489 412l-77 77c-19 19-49 19-67 1l-288-288-48-193 194 48 18 19 269 269c18 18 18 48-1 67z m-411-229l105-106-99-25-31 33z m125-40l-60 60 201 201 60-60z"/>
<glyph glyph-name="fod-icon-phone" unicode="&#115;" d="M479 282l-55 0c-34 0-33 40-33 40-5 30-24 67-83 67l-105 0c-59 0-77-37-83-67 0 0 1-40-33-40l-54 0c0 0-30-4-23 40 21 125 134 129 134 129 0 0 55 0 111 0 0 0 1 0 1 0 56 0 111 0 111 0 0 0 113-4 135-129 7-44-23-40-23-40z m-80-221c0 0-112 0-245 0-134 0-72 105-72 105l90 151 170 0c0 0 28-40 84-139 56-99-27-117-27-117z m-62 130c0 43-35 78-78 78-42 0-77-35-77-78 0-43 35-78 77-78 43 0 78 35 78 78z"/>
<glyph glyph-name="fod-icon-place" unicode="&#116;" d="M412 385c-32 127-156 127-156 127-11 0-125-6-155-127 0 0-9-46 18-106 0 0 30-59 36-67 0 0 82-122 100-212 18 90 103 212 103 212 6 8 37 66 37 66 26 60 17 107 17 107z m-154-80c-28 0-50 22-50 49 0 27 22 50 50 50 27 0 49-23 49-50 0-27-22-49-49-49z"/>
<glyph glyph-name="fod-icon-play" unicode="&#117;" d="M256 503c-137 0-247-110-247-247 0-137 110-247 247-247 137 0 247 110 247 247 0 137-110 247-247 247z m0-449c-112 0-202 90-202 202 0 112 90 202 202 202 112 0 202-90 202-202 0-112-90-202-202-202z m-47 329l126-122-126-121z"/>
<glyph glyph-name="fod-icon-plus" unicode="&#118;" d="M330 330l0 173-148 0 0-173-173 0 0-148 173 0 0-173 148 0 0 173 173 0 0 148z"/>
<glyph glyph-name="fod-icon-plus-circle" unicode="&#119;" d="M297 297l96 0 0-82-96 0 0-96-82 0 0 96-96 0 0 82 96 0 0 96 82 0z m215-41c0-142-114-256-256-256-142 0-256 114-256 256 0 142 114 256 256 256 142 0 256-114 256-256z m-40 0c0 119-97 216-216 216-119 0-216-97-216-216 0-119 97-216 216-216 119 0 216 97 216 216z"/>
<glyph glyph-name="fod-icon-question" unicode="&#120;" d="M431 431c-49 49-112 72-175 72-63 0-126-23-175-72-96-96-96-254 0-350 49-49 112-72 175-72 63 0 126 23 175 72 96 96 96 254 0 350z m-27-323c-40-39-93-61-148-61-55 0-108 21-148 61-81 81-81 215 0 296 40 39 93 61 148 61 55 0 108-21 148-61 81-81 81-215 0-296z m-42 213c0-10-4-21-9-31-6-10-18-23-37-37-14-12-22-20-27-27-3-6-5-14-6-23l-68 0 0 4c0 13 2 23 4 30 3 8 7 15 12 21 6 7 19 18 39 34 12 9 17 18 17 26 0 9-3 15-8 20-5 4-12 7-22 7-10 0-19-4-26-10-6-6-10-17-12-31l-70 8c4 26 13 47 30 63 17 17 45 25 80 25 29 0 52-6 69-17 23-16 34-36 34-62z m-72-181c0-21-17-38-37-38-21 0-38 17-38 38 0 20 17 37 38 37 20 0 37-17 37-37z"/>
<glyph glyph-name="fod-icon-ribbon" unicode="&#121;" d="M416 5l-148 157c-7 7-16 7-23 0l-149-157c-12-12-29-2-29 16l0 470c-1 12 7 21 17 21l344 0c10 0 18-9 18-21l0-470c0-18-18-28-30-16z"/>
<glyph glyph-name="fod-icon-star" unicode="&#122;" d="M271 491l66-133c3-6 8-9 13-10l147-21c14-2 19-20 9-30l-106-103c-4-5-6-10-5-16l25-146c2-14-13-24-26-18l-129 69c-6 2-12 2-17 0l-131-69c-13-7-28 4-26 18l25 146c1 6-1 11-5 16l-106 103c-10 10-4 27 10 30l146 21c6 1 11 4 13 10l66 133c7 12 25 12 31 0z"/>
<glyph glyph-name="fod-icon-triangle" unicode="&#65;" d="M512 387l-256-262-256 262z"/>
<glyph glyph-name="fod-icon-twitter" unicode="&#66;" d="M454 503l-396 0c-27 0-49-22-49-49l0-396c0-27 22-49 49-49l396 0c27 0 49 22 49 49l0 396c0 27-22 49-49 49z m-57-180c-3-114-74-193-184-198-44-3-76 12-106 29 32-5 74 8 96 28-32 2-52 19-62 47 10-3 19 0 27 0-30 10-49 27-52 66 8-5 17-7 27-7-22 12-36 59-19 89 32-35 71-64 135-69-17 69 77 107 114 60 17 2 30 10 42 14-5-17-15-27-28-36 12 2 25 5 35 10 0-13-12-23-25-33z"/>
<glyph glyph-name="fod-icon-uncheck" unicode="&#67;" d="M470 108c-8 17-82 91-157 163l137 193c18 22 62 73-28 33-19-8-95-85-173-165-48 46-88 83-95 88l-37 25c-20 18-52 0-62-13l-23-18c-10-13-2-38 18-54l17-14 118-82c-59-62-106-114-113-122l-29-42c-19-22 1-59 16-71l20-25c14-11 41-2 60 20l16 19 113 162 173-121c21-17 65-56 29 24z"/>
<glyph glyph-name="fod-icon-upload" unicode="&#68;" d="M212 283l-103 0 141 150 141-150-91 0 0-58-88 0z m204-87l0-29-320 0 0 29-87 0 0-116 494 0 0 116z"/>
</font>
</defs>
</svg>
